<svg xmlns="http://www.w3.org/2000/svg" width="27.327" height="23.576" viewBox="0 0 27.327 23.576">
  <path id="Icon_material-shopping-basket" data-name="Icon material-shopping-basket" d="M21.635,11.7,16.195,3.552a1.233,1.233,0,0,0-1.031-.522,1.214,1.214,0,0,0-1.031.534L8.692,11.7H2.742A1.246,1.246,0,0,0,1.5,12.942a1.046,1.046,0,0,0,.05.335L4.7,24.793A2.47,2.47,0,0,0,7.09,26.606H23.238a2.5,2.5,0,0,0,2.4-1.814L28.79,13.278l.037-.335A1.246,1.246,0,0,0,27.585,11.7Zm-10.2,0,3.726-5.465L18.89,11.7Zm3.726,9.937a2.484,2.484,0,1,1,2.484-2.484A2.492,2.492,0,0,1,15.164,21.637Z" transform="translate(-1.5 -3.03)" fill="#404040"/>
</svg>
