<svg xmlns="http://www.w3.org/2000/svg" width="14.98" height="14.98" viewBox="0 0 14.98 14.98">
  <g id="Icon_feather-download" data-name="Icon feather-download" transform="translate(-3.25 -3.25)">
    <path id="Path_30" data-name="Path 30" d="M15.92,27.351H5.561A2.313,2.313,0,0,1,3.25,25.041v-2.96a.831.831,0,0,1,1.662,0v2.96a.65.65,0,0,0,.649.649H15.92a.65.65,0,0,0,.649-.649v-2.96a.831.831,0,0,1,1.662,0v2.96A2.313,2.313,0,0,1,15.92,27.351Z" transform="translate(0 -9.121)" fill="#fff"/>
    <path id="Path_31" data-name="Path 31" d="M13.781,19.112a.828.828,0,0,1-.588-.243l-3.7-3.7a.831.831,0,1,1,1.175-1.175l3.112,3.112,3.112-3.112a.831.831,0,1,1,1.175,1.175l-3.7,3.7A.828.828,0,0,1,13.781,19.112Z" transform="translate(-3.04 -5.321)" fill="#fff"/>
    <path id="Path_32" data-name="Path 32" d="M17.581,13.791a.831.831,0,0,1-.831-.831V4.081a.831.831,0,0,1,1.662,0V12.96A.831.831,0,0,1,17.581,13.791Z" transform="translate(-6.841)" fill="#fff"/>
  </g>
</svg>
