<svg xmlns="http://www.w3.org/2000/svg" width="52.804" height="70.405" viewBox="0 0 52.804 70.405">
  <g id="Group_74" data-name="Group 74" transform="translate(0 0)">
    <path id="Path_24" data-name="Path 24" d="M283.746,4.211a26.5,26.5,0,0,0-26.4,26.4c0,10.588,3.438,13.751,23.652,42.766a3.461,3.461,0,0,0,2.75,1.237,3.386,3.386,0,0,0,2.613-1.237c20.214-29.015,23.789-32.178,23.789-42.766a26.587,26.587,0,0,0-26.4-26.4m0,65.18c-2.75-3.851-5.225-7.15-7.288-10.176-13.338-18.976-14.713-21.176-14.713-28.6a22,22,0,0,1,44,0c0,7.426-1.513,9.626-14.852,28.6-2.2,3.026-4.538,6.463-7.151,10.176m12.1-40.978h-9.9v-9.9a1.182,1.182,0,0,0-1.1-1.1h-2.2a1.084,1.084,0,0,0-1.1,1.1v9.9h-9.9a1.084,1.084,0,0,0-1.1,1.1v2.2a1.011,1.011,0,0,0,1.1,1.1h9.9v9.9a1.012,1.012,0,0,0,1.1,1.1h2.2a1.085,1.085,0,0,0,1.1-1.1v-9.9h9.9a1.085,1.085,0,0,0,1.1-1.1v-2.2a1.183,1.183,0,0,0-1.1-1.1" transform="translate(-257.344 -4.211)" fill="#5f8b2f"/>
  </g>
</svg>
