<svg xmlns="http://www.w3.org/2000/svg" width="70.405" height="70.405" viewBox="0 0 70.405 70.405">
  <g id="Group_75" data-name="Group 75" transform="translate(0 0)">
    <path id="Path_26" data-name="Path 26" d="M177.93,129.76c-.274-.275-3.025-2.475-6.325-5.225v-4.263a4.525,4.525,0,0,0-4.4-4.4h-6.463a15.808,15.808,0,0,1-1.376-1.1c-3.025-2.338-8.25-7.7-14.163-7.7-6.05,0-11.138,5.226-14.3,7.7a15.9,15.9,0,0,1-1.375,1.1H123.2a4.431,4.431,0,0,0-4.4,4.4v4.263c-3.438,2.75-6.188,4.95-6.463,5.225A7.091,7.091,0,0,0,110,134.849v36.028a6.516,6.516,0,0,0,6.6,6.6h57.2a6.6,6.6,0,0,0,6.6-6.6V134.849a6.737,6.737,0,0,0-2.475-5.088M145.2,111.472c2.888,0,6.051,2.338,8.663,4.4H136.4c2.613-2.062,5.776-4.4,8.8-4.4m-22,8.8h44V144.2c-4.538,3.576-9.076,7.15-11.963,9.488-2.338,1.925-6.876,6.325-10.039,6.188-3.3.138-7.838-4.262-10.176-6.188-2.887-2.338-7.426-5.912-11.826-9.488Zm-8.8,14.576a2.275,2.275,0,0,1,.687-1.65c.274-.138,1.65-1.376,3.712-2.888v10.313c-1.65-1.237-3.163-2.474-4.4-3.575Zm61.6,36.028a2.262,2.262,0,0,1-2.2,2.2H116.6a2.172,2.172,0,0,1-2.2-2.2v-28.19c5.775,4.813,13.614,11,17.876,14.439,2.888,2.338,7.839,7.288,12.926,7.15,4.951.138,9.9-4.813,12.788-7.15,4.263-3.438,12.1-9.626,18.014-14.439Zm0-33.828c-1.376,1.1-2.888,2.338-4.4,3.575V130.31c1.925,1.513,3.3,2.751,3.576,2.888a2.4,2.4,0,0,1,.825,1.65Zm-34.653,3.163,6.188,1.925a1.523,1.523,0,0,1,1.238,1.65,1.627,1.627,0,0,1-1.65,1.787h-3.85a4.24,4.24,0,0,1-1.788-.412,1.057,1.057,0,0,0-1.375.138l-1.513,1.513a1.032,1.032,0,0,0,0,1.65,7.111,7.111,0,0,0,4.4,1.513v2.2a1.012,1.012,0,0,0,1.1,1.1h2.2a1.085,1.085,0,0,0,1.1-1.1v-2.2a6,6,0,0,0,5.776-6.188,6.111,6.111,0,0,0-4.262-5.913l-6.189-1.925a1.522,1.522,0,0,1-1.237-1.65,1.748,1.748,0,0,1,1.65-1.925h3.85a4.48,4.48,0,0,1,1.788.55,1.057,1.057,0,0,0,1.375-.138l1.513-1.513a1.032,1.032,0,0,0,0-1.65,7.01,7.01,0,0,0-4.263-1.513v-2.338a1.183,1.183,0,0,0-1.1-1.1h-2.2a1.085,1.085,0,0,0-1.1,1.1v2.338a6.021,6.021,0,0,0-5.913,6.188,6.239,6.239,0,0,0,4.263,5.913" transform="translate(-110 -107.071)" fill="#5f8b2f"/>
  </g>
</svg>
