<svg id="Group_76" data-name="Group 76" xmlns="http://www.w3.org/2000/svg" width="66.005" height="70.371" viewBox="0 0 66.005 70.371">
  <path id="Path_25" data-name="Path 25" d="M61.879,11.413l-26.4-11A7.78,7.78,0,0,0,33,0,8,8,0,0,0,30.39.412l-26.4,11A6.581,6.581,0,0,0,0,17.463c0,27.365,15.676,46.2,30.39,52.392a6.533,6.533,0,0,0,5.087,0C47.3,64.9,66,47.99,66,17.463a6.712,6.712,0,0,0-4.125-6.05M33.827,65.729a2.037,2.037,0,0,1-1.787,0C18.7,60.366,4.4,41.665,4.4,17.463a1.947,1.947,0,0,1,1.238-1.925l26.4-11a2.037,2.037,0,0,1,1.787,0l26.4,11a1.784,1.784,0,0,1,1.238,1.925c.138,24.2-14.164,42.9-27.64,48.266m18.7-44.691a1.863,1.863,0,0,0-2.338,0L27.777,43.315l-9.488-9.488a1.581,1.581,0,0,0-2.338,0l-1.238,1.1a1.583,1.583,0,0,0,0,2.338L26.539,49.228a1.864,1.864,0,0,0,2.338,0L53.629,24.614a1.584,1.584,0,0,0,0-2.338Z" transform="translate(0 0.001)" fill="#5f8b2f"/>
</svg>
