<svg id="Group_3788" data-name="Group 3788" xmlns="http://www.w3.org/2000/svg" width="38.772" height="24.821" viewBox="0 0 38.772 24.821">
  <g id="Group_3789" data-name="Group 3789" transform="translate(0)">
    <path id="Path_5491" data-name="Path 5491" d="M35.3,0H3.074c-.112,0-.223,0-.335.005A4.847,4.847,0,0,0,2.01.07,2.455,2.455,0,0,0,1.317.3,2.33,2.33,0,0,0,.3,1.317a2.45,2.45,0,0,0-.228.693,4.819,4.819,0,0,0-.064.729c0,.112,0,.223-.005.335,0,.133,0,.265,0,.4V21.349c0,.133,0,.265,0,.4,0,.111,0,.223.005.335a4.816,4.816,0,0,0,.064.729A2.45,2.45,0,0,0,.3,23.5a2.327,2.327,0,0,0,1.019,1.019,2.456,2.456,0,0,0,.693.229,4.909,4.909,0,0,0,.729.064q.167,0,.335,0H35.7c.112,0,.223,0,.335,0a4.922,4.922,0,0,0,.729-.064,2.461,2.461,0,0,0,.693-.229A2.328,2.328,0,0,0,38.473,23.5a2.435,2.435,0,0,0,.228-.693,4.815,4.815,0,0,0,.064-.729c0-.112,0-.223.005-.335,0-.133,0-.265,0-.4V3.472c0-.133,0-.265,0-.4,0-.111,0-.223-.005-.335a4.818,4.818,0,0,0-.064-.729,2.435,2.435,0,0,0-.228-.693A2.331,2.331,0,0,0,37.454.3,2.46,2.46,0,0,0,36.761.07a4.861,4.861,0,0,0-.729-.064C35.92,0,35.808,0,35.7,0h-.4" transform="translate(0)" fill="#414141"/>
    <path id="Path_5492" data-name="Path 5492" d="M38,3.532H38.4c.106,0,.212,0,.319,0a4.12,4.12,0,0,1,.605.051,1.636,1.636,0,0,1,.465.152,1.5,1.5,0,0,1,.657.658,1.615,1.615,0,0,1,.151.464,4.1,4.1,0,0,1,.051.6c0,.105,0,.211,0,.319,0,.13,0,.261,0,.391V24.054c0,.131,0,.261,0,.394,0,.105,0,.211,0,.316a4.1,4.1,0,0,1-.052.606,1.6,1.6,0,0,1-.151.463,1.5,1.5,0,0,1-.658.658,1.615,1.615,0,0,1-.462.151,4.183,4.183,0,0,1-.6.052c-.107,0-.214,0-.323,0H5.783l-.317,0a4.217,4.217,0,0,1-.605-.052A1.621,1.621,0,0,1,4.4,26.49a1.5,1.5,0,0,1-.656-.657,1.621,1.621,0,0,1-.152-.465,4.139,4.139,0,0,1-.052-.6c0-.106,0-.212,0-.317V5.785c0-.106,0-.212,0-.318a4.121,4.121,0,0,1,.052-.606A1.619,1.619,0,0,1,3.74,4.4,1.5,1.5,0,0,1,4.4,3.74a1.632,1.632,0,0,1,.464-.152,4.119,4.119,0,0,1,.606-.051c.106,0,.212,0,.317,0H38Z" transform="translate(-2.705 -2.705)" fill="#fff"/>
    <path id="Path_5493" data-name="Path 5493" d="M40.459,30.6a2.164,2.164,0,0,0,.5-1.542,2.146,2.146,0,0,0-1.422.736,2.025,2.025,0,0,0-.51,1.483,1.79,1.79,0,0,0,1.434-.676" transform="translate(-29.875 -22.249)" fill="#414141"/>
    <path id="Path_5494" data-name="Path 5494" d="M28.256,38.972c-.792-.047-1.466.45-1.844.45s-.958-.426-1.584-.414a2.336,2.336,0,0,0-1.986,1.206c-.851,1.467-.225,3.644.6,4.838.4.591.887,1.242,1.525,1.219.6-.024.84-.39,1.573-.39s.946.39,1.584.379c.662-.012,1.076-.591,1.478-1.183a5.243,5.243,0,0,0,.662-1.36,2.149,2.149,0,0,1-1.288-1.952,2.19,2.19,0,0,1,1.04-1.834,2.266,2.266,0,0,0-1.762-.958" transform="translate(-17.18 -29.841)" fill="#414141"/>
    <path id="Path_5495" data-name="Path 5495" d="M65.858,31.943a2.784,2.784,0,0,1,2.921,2.915,2.815,2.815,0,0,1-2.964,2.927H63.908v3.032H62.531V31.943h3.327Zm-1.95,4.686h1.58a1.765,1.765,0,1,0,.006-3.524H63.908Z" transform="translate(-47.884 -24.461)" fill="#414141"/>
    <path id="Path_5496" data-name="Path 5496" d="M90.74,46.458c0-1.132.867-1.827,2.4-1.913l1.771-.1v-.5c0-.72-.486-1.15-1.3-1.15a1.239,1.239,0,0,0-1.365.947H91c.074-1.169,1.07-2.029,2.669-2.029,1.568,0,2.57.83,2.57,2.128V48.3H94.965V47.232h-.031a2.311,2.311,0,0,1-2.042,1.174,1.961,1.961,0,0,1-2.152-1.949m4.176-.584v-.51l-1.593.1c-.793.055-1.242.406-1.242.959s.467.935,1.181.935a1.551,1.551,0,0,0,1.654-1.482" transform="translate(-69.485 -31.94)" fill="#414141"/>
    <path id="Path_5497" data-name="Path 5497" d="M117.251,51.059V49.982a2.454,2.454,0,0,0,.43.025,1.077,1.077,0,0,0,1.15-.922c0-.012.117-.394.117-.4l-2.337-6.476h1.439l1.636,5.264h.025l1.636-5.264h1.4l-2.423,6.808c-.553,1.568-1.193,2.073-2.534,2.073a5.166,5.166,0,0,1-.541-.031" transform="translate(-89.296 -32.322)" fill="#414141"/>
  </g>
</svg>
