<svg xmlns="http://www.w3.org/2000/svg" width="60.165" height="25.523" viewBox="0 0 60.165 25.523">
  <g id="Group_3797" data-name="Group 3797" transform="translate(-807.255 -679.806)">
    <path id="Path_5505" data-name="Path 5505" d="M42.1,32.346a4.617,4.617,0,0,0,1.062-3.291,4.579,4.579,0,0,0-3.035,1.571,4.322,4.322,0,0,0-1.088,3.163A3.82,3.82,0,0,0,42.1,32.346" transform="translate(776.528 650.751)" fill="#fff"/>
    <path id="Path_5506" data-name="Path 5506" d="M34.855,38.975c-1.69-.1-3.128.96-3.935.96s-2.044-.909-3.381-.884A4.985,4.985,0,0,0,23.3,41.625c-1.816,3.131-.479,7.775,1.287,10.324.858,1.262,1.892,2.65,3.254,2.6,1.287-.05,1.791-.833,3.356-.833s2.018.833,3.38.808c1.412-.025,2.3-1.262,3.154-2.525a11.187,11.187,0,0,0,1.412-2.9,4.585,4.585,0,0,1-2.749-4.165,4.672,4.672,0,0,1,2.22-3.913,4.835,4.835,0,0,0-3.759-2.044" transform="translate(784.82 645.792)" fill="#fff"/>
    <path id="Path_5507" data-name="Path 5507" d="M69.63,31.944a5.941,5.941,0,0,1,6.233,6.22,6.007,6.007,0,0,1-6.325,6.246H65.47v6.469H62.531V31.943h7.1Zm-4.16,10h3.372c2.559,0,4.015-1.377,4.015-3.766s-1.456-3.753-4-3.753H65.47Z" transform="translate(764.764 649.306)" fill="#fff"/>
    <path id="Path_5508" data-name="Path 5508" d="M90.74,51.84c0-2.415,1.85-3.9,5.13-4.081l3.779-.223V46.473c0-1.535-1.037-2.454-2.768-2.454-1.641,0-2.664.787-2.913,2.021H91.291c.157-2.494,2.283-4.33,5.7-4.33,3.346,0,5.484,1.771,5.484,4.54v9.513H99.754v-2.27h-.066A4.931,4.931,0,0,1,95.333,56c-2.7,0-4.593-1.679-4.593-4.159m8.91-1.247V49.5l-3.4.21c-1.693.118-2.65.866-2.65,2.047,0,1.207,1,1.994,2.52,1.994a3.309,3.309,0,0,0,3.53-3.162" transform="translate(750.654 644.421)" fill="#fff"/>
    <path id="Path_5509" data-name="Path 5509" d="M117.976,61.092V58.8a5.235,5.235,0,0,0,.918.052,2.3,2.3,0,0,0,2.454-1.968c0-.026.25-.84.25-.853l-4.987-13.818h3.07l3.491,11.233h.053l3.491-11.233h2.992l-5.17,14.526c-1.181,3.346-2.545,4.422-5.406,4.422a11.021,11.021,0,0,1-1.155-.065" transform="translate(737.714 644.172)" fill="#fff"/>
  </g>
</svg>
