<svg id="Group_3802" data-name="Group 3802" xmlns="http://www.w3.org/2000/svg" width="38.772" height="24.821" viewBox="0 0 38.772 24.821">
  <path id="Path_5491" data-name="Path 5491" d="M35.3,0H3.074c-.112,0-.223,0-.335.005A4.847,4.847,0,0,0,2.01.07,2.455,2.455,0,0,0,1.317.3,2.33,2.33,0,0,0,.3,1.317a2.45,2.45,0,0,0-.228.693,4.819,4.819,0,0,0-.064.729c0,.112,0,.223-.005.335,0,.133,0,.265,0,.4V21.349c0,.133,0,.265,0,.4,0,.111,0,.223.005.335a4.816,4.816,0,0,0,.064.729A2.45,2.45,0,0,0,.3,23.5a2.327,2.327,0,0,0,1.019,1.019,2.456,2.456,0,0,0,.693.229,4.909,4.909,0,0,0,.729.064q.167,0,.335,0H35.7c.112,0,.223,0,.335,0a4.923,4.923,0,0,0,.729-.064,2.461,2.461,0,0,0,.693-.229A2.328,2.328,0,0,0,38.473,23.5a2.435,2.435,0,0,0,.228-.693,4.815,4.815,0,0,0,.064-.729c0-.111,0-.223.005-.335,0-.133,0-.265,0-.4V3.472c0-.133,0-.265,0-.4,0-.111,0-.223-.005-.335a4.818,4.818,0,0,0-.064-.729,2.435,2.435,0,0,0-.228-.693A2.331,2.331,0,0,0,37.454.3,2.46,2.46,0,0,0,36.761.07a4.861,4.861,0,0,0-.729-.064C35.92,0,35.808,0,35.7,0h-.4" transform="translate(0)" fill="#414141"/>
  <path id="Path_5492" data-name="Path 5492" d="M38,3.532H38.4c.106,0,.212,0,.319,0a4.121,4.121,0,0,1,.605.051,1.636,1.636,0,0,1,.465.152,1.5,1.5,0,0,1,.657.658,1.615,1.615,0,0,1,.151.464,4.1,4.1,0,0,1,.051.6c0,.105,0,.211,0,.319,0,.13,0,.261,0,.391V24.054c0,.131,0,.261,0,.394,0,.105,0,.211,0,.316a4.1,4.1,0,0,1-.052.606,1.605,1.605,0,0,1-.151.463,1.5,1.5,0,0,1-.658.658,1.614,1.614,0,0,1-.462.151,4.183,4.183,0,0,1-.6.052c-.107,0-.214,0-.323,0H5.783l-.317,0a4.217,4.217,0,0,1-.605-.052A1.621,1.621,0,0,1,4.4,26.49a1.5,1.5,0,0,1-.656-.657,1.621,1.621,0,0,1-.152-.465,4.138,4.138,0,0,1-.052-.6c0-.106,0-.212,0-.317V5.785c0-.106,0-.212,0-.318a4.121,4.121,0,0,1,.052-.606A1.619,1.619,0,0,1,3.74,4.4,1.5,1.5,0,0,1,4.4,3.74a1.632,1.632,0,0,1,.464-.152,4.119,4.119,0,0,1,.606-.051c.106,0,.212,0,.317,0H38Z" transform="translate(-2.703 -2.705)" fill="#fff"/>
  <path id="Icon_ionic-md-card" data-name="Icon ionic-md-card" d="M16.337,5.625H3.815A1.54,1.54,0,0,0,2.257,7.162L2.25,16.386a1.546,1.546,0,0,0,1.565,1.537H16.337A1.546,1.546,0,0,0,17.9,16.386V7.162A1.546,1.546,0,0,0,16.337,5.625Zm0,10.761H3.815V11.774H16.337Zm0-7.686H3.815V7.162H16.337Z" transform="translate(9.75 0.375)" fill="#414141"/>
</svg>
