<svg id="Group_3596" data-name="Group 3596" xmlns="http://www.w3.org/2000/svg" width="176.5" height="61.988" viewBox="0 0 176.5 61.988">
  <g id="Group_86" data-name="Group 86">
    <g id="Group_85" data-name="Group 85">
      <path id="Path_57" data-name="Path 57" d="M113.907,277.032c2.5-.829,6.719-2.784,3.561-4.544-4.662,1.654-9.141,4.544-14.417,4.939.451-1.065.2-2.378.776-4.15.76-2.248,2.935-3.069,2.382-5.146-.8-2.979-4.54-.167-4.54,1.979a62.226,62.226,0,0,1-11.06,4.556,42.974,42.974,0,0,1,1.756-6.121c1.142-2.959,3-6.812,4.556-8.109.581-.48,2.049-1.41,2.971-1.175,1.37.329.845,1.894,1.776,2.947,1.492.646,2.321-.37,2.959-1.175.667-6.259-5.5-6.463-8.487-3.556-4,3.837-6.723,13.2-8.495,17.778-2.109,2.252-6.052,2.638-8.893,4.134-.081,1.142-.053,2.166.577,2.573,3.3.268,4.552-2.549,6.922-2.573-.919,4.926-3,10.771-4.146,15.214-.248,1.02-.573,2.008-.793,2.979-.748,3.414-2.227,6.3-2.179,9.474.033,1.341.707,3.561,2.382,3.561,2.8-.041,2.008-3.934,1.979-5.926a18.752,18.752,0,0,1,.589-3.166A164.556,164.556,0,0,1,89.008,278.8a44.078,44.078,0,0,1,12.255-5.914c-.13,1.975-1.183,3.012-1.179,5.142-1.349,1.471-5.292.354-4.938,3.54,1.406,1.41,2.874-.866,4.138-.211-.549,3.52-3.975,10.844-1.366,14.047,1.244,1.524,3.414,1.484,5.316.593a18.26,18.26,0,0,0,4.548-3.561c1.191-1.264,2.5-3,2.577-4.739-3.321-1.585-3.646,1.736-5.337,3.557-1.349,1.463-2.4,2.52-4.536,2.573-.041-.171-.167-.24-.4-.2-1.2-4.938,1.162-9.621,2.362-13.433,3.39-1.26,7.71-1.927,11.462-3.162" transform="translate(-34.293 -255.67)" fill="#5f8b2f"/>
      <path id="Path_58" data-name="Path 58" d="M122.644,269.4c.646-.935,4.565-1.341,6.121-1.577,2.837-.447,10.267.341,9.288-2.975-.634-2.118-5.719.337-7.5.793-2.89.744-4.349.817-6.918,1.39-1.707-3.7,2.5-6.581,1-10.072a2.884,2.884,0,0,0-2.979,0c-.988,3.475-.764,8.162-2.955,10.458-1.431.471-3.479.354-3.162,2.561.626.683,1.589-.159,2.37.4-3.447,4.91-6.1,10.649-11.06,14.039-4.052-4.337,2.325-10.986,1.585-15.409a2.446,2.446,0,0,0-3.349.394c-1.045,4.837-3.069,8.662-2.573,15.014,1.622,3.179,4.593,3.5,7.1,1.183,2.475-2.28,5.28-6.959,7.1-10.076.809-1.358,1.321-2.866,2.378-3.552-.63,5.621-2.67,17.807,4.934,14.616,2.508-2.479,6.95-3.073,7.715-7.316-.752-.6-1.488-.463-2.581-.39-1.5,2.658-3.666,5.658-7.113,5.735-1.687-1.8-.589-3.91-.4-6.727.252-3.207-.191-6.759,1-8.487" transform="translate(38.359 -252.981)" fill="#5f8b2f"/>
      <path id="Path_59" data-name="Path 59" d="M102.856,281.843c-1.126,1.39-3.5,3.361-4.544,1.585.675-6.174,4.178-9.511,8.284-12.251.748-.126.439.764.988.785a21.892,21.892,0,0,1-4.727,9.881m12.62-23.506c-.411-1.191-2.264-1.467-3.739-.979-1.605,3.048-1.605,7.743-3.357,10.661-5.41,1.085-11.539,6.617-12.832,12.446-.545,2.394-.272,6.044,1.162,6.918,4.3,1.045,6.625-2.211,8.1-4.548.886-1.406,1.264-3.256,2.581-3.947.293,2.585-.126,6.451,2.158,6.914,1.553.313,2.674-.537,2.776-1.581.114-1.394-1.939-2.236-2.353-3.374-.894-2.28-.435-5.963,0-8.483.829-5.2,5.113-9.434,5.5-14.027" transform="translate(16.477 -251.202)" fill="#5f8b2f"/>
      <path id="Path_60" data-name="Path 60" d="M107.62,258.5c-.971-2.057-4.239-1.553-3.947.614.28,2.049,3.65,1.561,3.947-.614" transform="translate(42.12 -250.992)" fill="#5f8b2f"/>
      <path id="Path_61" data-name="Path 61" d="M95.05,258.492c-1.053.667-.378,3.7,1.191,3.934,3.467.557,1.227-5.471-1.191-3.934" transform="translate(14.195 -247.796)" fill="#5f8b2f"/>
      <path id="Path_62" data-name="Path 62" d="M80.571,264.315c1.106-.894.63-4.312,0-5.329-5.158-1.463-2.528,5.715,0,5.329" transform="translate(-37.697 -246.112)" fill="#5f8b2f"/>
      <path id="Path_63" data-name="Path 63" d="M99.4,266.079c-2.394,3.93-4.065,8.576-7.889,11.068-1.061-.882-.634-3.227,0-4.93a25.652,25.652,0,0,1,6.914-9.487H99.4c.52,1.04-.146,2.044,0,3.349m14.429-4.536c-.8.081-2.292,2.89-2.776,3.752-2.475,4.5-4.264,9.576-8.479,11.657-3.028-3.658.3-10.743-.394-15.214-.988-.512-3.439-1.947-4.544-1.179-4.276,2.947-11.816,11.555-9.686,18.364a6.9,6.9,0,0,1,1.585,1.179c6.032.26,6.263-5.308,9.076-8.292-.089,3.386.118,6.524,2.187,7.312,5.089,1.963,7.678-6.491,10.06-8.69.167,3.162-.61,6.227.394,8.69a3.03,3.03,0,0,0,2.187,0c.768-3.223-.541-7.8.39-11.653.337-1.447,2.171-3.341,1.784-4.739a2.292,2.292,0,0,0-1.784-1.187" transform="translate(-7.148 -241.368)" fill="#5f8b2f"/>
      <path id="Path_64" data-name="Path 64" d="M82.04,261.3c-2.057-.3-2.126.915-2.561,2.37-1.4,4.43-3.935,9.82-2.975,15.193a1.7,1.7,0,0,1,.8.813,3.829,3.829,0,0,0,2.374-.4c.2-3.857.3-10.381,1.979-14.035.866-1.91,1.87-2.792.386-3.943" transform="translate(-41.731 -238.554)" fill="#5f8b2f"/>
      <path id="Path_65" data-name="Path 65" d="M89.134,276.248c-1.488,1.028-3.971,1.24-4.353-1-.4-2.557,4.776-10.6,7.906-11.056a4.073,4.073,0,0,1,1.589.187c1.829,3.2-2.89,10.271-5.142,11.868m8.28-14.84c-.679.11-.89.683-1.577.793a21.983,21.983,0,0,0-2.752-.191c-4.024.419-9.487,5.719-11.064,9.288-1.638,3.7-.845,7.731,2.183,8.7,4.126,1.333,7.568-2.378,9.279-4.947,1.081-1.63,1.232-3.784,2.353-4.735.11,8.475-1.768,15.827-6.32,20.924a18.683,18.683,0,0,1-9.67,5.739,14.624,14.624,0,0,1-4.544,0c-2.069-.536-3.268-3.394-5.524-3.162a2.391,2.391,0,0,0-1.971,1.975c-.561,5.719,12.19,4.589,15.99,2.967,9.288-4.024,14.108-14.657,14.832-27.464.081-1.508-.3-3.044,0-4.731.268-1.707,1.9-4.646-1.215-5.158" transform="translate(-67.79 -238.088)" fill="#5f8b2f"/>
    </g>
  </g>
</svg>
