<svg id="Group_3792" data-name="Group 3792" xmlns="http://www.w3.org/2000/svg" xmlns:xlink="http://www.w3.org/1999/xlink" width="38.772" height="24.821" viewBox="0 0 38.772 24.821">
  <defs>
    <clipPath id="clip-path">
      <rect id="Rectangle_1187" data-name="Rectangle 1187" width="28.197" height="11.201" fill="none"/>
    </clipPath>
  </defs>
  <path id="Path_5491" data-name="Path 5491" d="M35.3,0H3.074c-.112,0-.223,0-.335.005A4.847,4.847,0,0,0,2.01.07,2.455,2.455,0,0,0,1.317.3,2.33,2.33,0,0,0,.3,1.317a2.45,2.45,0,0,0-.228.693,4.819,4.819,0,0,0-.064.729c0,.112,0,.223-.005.335,0,.133,0,.265,0,.4V21.349c0,.133,0,.265,0,.4,0,.111,0,.223.005.335a4.816,4.816,0,0,0,.064.729A2.45,2.45,0,0,0,.3,23.5a2.327,2.327,0,0,0,1.019,1.019,2.456,2.456,0,0,0,.693.229,4.909,4.909,0,0,0,.729.064q.167,0,.335,0H35.7c.112,0,.223,0,.335,0a4.923,4.923,0,0,0,.729-.064,2.461,2.461,0,0,0,.693-.229A2.328,2.328,0,0,0,38.473,23.5a2.435,2.435,0,0,0,.228-.693,4.815,4.815,0,0,0,.064-.729c0-.111,0-.223.005-.335,0-.133,0-.265,0-.4V3.472c0-.133,0-.265,0-.4,0-.111,0-.223-.005-.335a4.818,4.818,0,0,0-.064-.729,2.435,2.435,0,0,0-.228-.693A2.331,2.331,0,0,0,37.454.3,2.46,2.46,0,0,0,36.761.07a4.861,4.861,0,0,0-.729-.064C35.92,0,35.808,0,35.7,0h-.4" transform="translate(0 0)" fill="#414141"/>
  <path id="Path_5492" data-name="Path 5492" d="M38,3.532H38.4c.106,0,.212,0,.319,0a4.121,4.121,0,0,1,.605.051,1.636,1.636,0,0,1,.465.152,1.5,1.5,0,0,1,.657.658,1.615,1.615,0,0,1,.151.464,4.1,4.1,0,0,1,.051.6c0,.105,0,.211,0,.319,0,.13,0,.261,0,.391V24.054c0,.131,0,.261,0,.394,0,.105,0,.211,0,.316a4.1,4.1,0,0,1-.052.606,1.605,1.605,0,0,1-.151.463,1.5,1.5,0,0,1-.658.658,1.614,1.614,0,0,1-.462.151,4.183,4.183,0,0,1-.6.052c-.107,0-.214,0-.323,0H5.783l-.317,0a4.217,4.217,0,0,1-.605-.052A1.621,1.621,0,0,1,4.4,26.49a1.5,1.5,0,0,1-.656-.657,1.621,1.621,0,0,1-.152-.465,4.138,4.138,0,0,1-.052-.6c0-.106,0-.212,0-.317V5.785c0-.106,0-.212,0-.318a4.121,4.121,0,0,1,.052-.606A1.619,1.619,0,0,1,3.74,4.4,1.5,1.5,0,0,1,4.4,3.74a1.632,1.632,0,0,1,.464-.152,4.119,4.119,0,0,1,.606-.051c.106,0,.212,0,.317,0H38Z" transform="translate(-2.705 -2.705)" fill="#fff"/>
  <g id="Group_3791" data-name="Group 3791" transform="translate(5.287 6.81)">
    <g id="Group_3790" data-name="Group 3790" clip-path="url(#clip-path)">
      <path id="Path_5498" data-name="Path 5498" d="M191.166,14.821v3.285h-1.041V10h2.761a2.51,2.51,0,0,1,1.791.7,2.235,2.235,0,0,1,.744,1.707,2.263,2.263,0,0,1-.744,1.72,2.5,2.5,0,0,1-1.785.692Zm0-3.828v2.833h1.746a1.361,1.361,0,0,0,1.028-.42,1.38,1.38,0,0,0,.026-1.953l-.026-.026A1.344,1.344,0,0,0,192.912,11Zm6.654,1.384a2.6,2.6,0,0,1,1.824.614,2.193,2.193,0,0,1,.666,1.694V18.1h-1v-.77h-.045a1.989,1.989,0,0,1-1.72.951,2.233,2.233,0,0,1-1.533-.543,1.715,1.715,0,0,1-.614-1.358,1.657,1.657,0,0,1,.653-1.371,2.73,2.73,0,0,1,1.74-.511,3.136,3.136,0,0,1,1.526.336V14.6a1.193,1.193,0,0,0-.427-.918,1.513,1.513,0,0,0-1-.382,1.6,1.6,0,0,0-1.384.737l-.918-.576A2.539,2.539,0,0,1,197.821,12.377Zm-1.345,4.029a.839.839,0,0,0,.343.679,1.272,1.272,0,0,0,.808.272,1.654,1.654,0,0,0,1.171-.485,1.527,1.527,0,0,0,.517-1.145,2.122,2.122,0,0,0-1.358-.388,1.8,1.8,0,0,0-1.061.3.924.924,0,0,0-.42.763m9.552-3.848-3.479,7.993h-1.074l1.293-2.794-2.289-5.193h1.132l1.649,3.984h.026l1.61-3.984Z" transform="translate(-177.83 -9.35)" fill="#414141"/>
      <path id="Path_5499" data-name="Path 5499" d="M76.494,59.948A5.752,5.752,0,0,0,76.416,59H72.025V60.8h2.516a2.156,2.156,0,0,1-.931,1.416v1.164h1.5A4.542,4.542,0,0,0,76.494,59.948Z" transform="translate(-67.367 -55.188)" fill="#4285f4"/>
      <path id="Path_5500" data-name="Path 5500" d="M11.883,89.568a4.454,4.454,0,0,0,3.085-1.125l-1.5-1.164a2.821,2.821,0,0,1-4.2-1.474H7.725v1.2a4.663,4.663,0,0,0,4.158,2.561" transform="translate(-7.225 -80.255)" fill="#34a853"/>
      <path id="Path_5501" data-name="Path 5501" d="M2.045,42.685a2.81,2.81,0,0,1,0-1.785V39.7H.5a4.617,4.617,0,0,0,0,4.178Z" transform="translate(0 -37.136)" fill="#fbbc04"/>
      <path id="Path_5502" data-name="Path 5502" d="M11.883,1.843a2.506,2.506,0,0,1,1.785.7l1.326-1.326A4.445,4.445,0,0,0,11.883,0,4.657,4.657,0,0,0,7.725,2.567l1.546,1.2a2.783,2.783,0,0,1,2.613-1.927" transform="translate(-7.225 0)" fill="#ea4335"/>
    </g>
  </g>
</svg>
