<svg id="Group_3799" data-name="Group 3799" xmlns="http://www.w3.org/2000/svg" xmlns:xlink="http://www.w3.org/1999/xlink" width="64.528" height="25.633" viewBox="0 0 64.528 25.633">
  <defs>
    <clipPath id="clip-path">
      <rect id="Rectangle_1187" data-name="Rectangle 1187" width="64.528" height="25.633" fill="none"/>
    </clipPath>
  </defs>
  <g id="Group_3790" data-name="Group 3790" clip-path="url(#clip-path)">
    <path id="Path_5498" data-name="Path 5498" d="M192.508,21.038v7.518h-2.383V10h6.319a5.745,5.745,0,0,1,4.1,1.613,5.115,5.115,0,0,1,1.7,3.907,5.178,5.178,0,0,1-1.7,3.937,5.724,5.724,0,0,1-4.085,1.584Zm0-8.761v6.482h4a3.116,3.116,0,0,0,2.353-.962,3.158,3.158,0,0,0,.059-4.469l-.059-.059a3.076,3.076,0,0,0-2.353-.977Zm15.228,3.167a5.958,5.958,0,0,1,4.173,1.406,5.017,5.017,0,0,1,1.524,3.877v7.814h-2.279V26.78h-.1a4.551,4.551,0,0,1-3.937,2.175,5.11,5.11,0,0,1-3.507-1.243A3.925,3.925,0,0,1,202.2,24.6a3.791,3.791,0,0,1,1.495-3.137,6.246,6.246,0,0,1,3.981-1.169,7.177,7.177,0,0,1,3.492.77V20.52a2.729,2.729,0,0,0-.977-2.1,3.463,3.463,0,0,0-2.294-.873,3.668,3.668,0,0,0-3.167,1.687l-2.1-1.317A5.81,5.81,0,0,1,207.736,15.444Zm-3.078,9.22a1.92,1.92,0,0,0,.784,1.554,2.91,2.91,0,0,0,1.85.622,3.786,3.786,0,0,0,2.679-1.11,3.494,3.494,0,0,0,1.184-2.619,4.856,4.856,0,0,0-3.108-.888,4.123,4.123,0,0,0-2.427.7,2.115,2.115,0,0,0-.962,1.746m21.858-8.805L218.554,34.15H216.1l2.96-6.393-5.239-11.884h2.59l3.774,9.116h.059l3.685-9.116Z" transform="translate(-161.988 -8.517)" fill="#fff"/>
    <path id="Path_5499" data-name="Path 5499" d="M82.251,61.165A13.163,13.163,0,0,0,82.074,59H72.025v4.1h5.757a4.934,4.934,0,0,1-2.131,3.241v2.664h3.433A10.4,10.4,0,0,0,82.251,61.165Z" transform="translate(-61.366 -50.272)" fill="#4285f4"/>
    <path id="Path_5500" data-name="Path 5500" d="M17.241,94.417A10.192,10.192,0,0,0,24.3,91.842l-3.433-2.664a6.455,6.455,0,0,1-9.6-3.374H7.725v2.753a10.67,10.67,0,0,0,9.516,5.86" transform="translate(-6.582 -73.106)" fill="#34a853"/>
    <path id="Path_5501" data-name="Path 5501" d="M4.68,46.526a6.429,6.429,0,0,1,0-4.085V39.7H1.143a10.565,10.565,0,0,0,0,9.56Z" transform="translate(0 -33.828)" fill="#fbbc04"/>
    <path id="Path_5502" data-name="Path 5502" d="M17.241,4.218a5.735,5.735,0,0,1,4.085,1.6l3.034-3.034A10.172,10.172,0,0,0,17.241,0,10.657,10.657,0,0,0,7.725,5.876l3.537,2.753a6.37,6.37,0,0,1,5.979-4.41" transform="translate(-6.582 0)" fill="#ea4335"/>
  </g>
</svg>
