<svg id="Group_3605" data-name="Group 3605" xmlns="http://www.w3.org/2000/svg" xmlns:xlink="http://www.w3.org/1999/xlink" width="93.74" height="24.979" viewBox="0 0 93.74 24.979">
  <defs>
    <clipPath id="clip-path">
      <rect id="Rectangle_1149" data-name="Rectangle 1149" width="93.74" height="24.979" fill="none"/>
    </clipPath>
  </defs>
  <g id="Group_3604" data-name="Group 3604" clip-path="url(#clip-path)">
    <path id="Path_5476" data-name="Path 5476" d="M11.249.021H3.957a1.013,1.013,0,0,0-1,.855L.007,19.573a.608.608,0,0,0,.6.7H4.09a1.013,1.013,0,0,0,1-.856l.8-5.043a1.013,1.013,0,0,1,1-.856H9.194c4.8,0,7.575-2.324,8.3-6.93a5.616,5.616,0,0,0-.93-4.707C15.527.665,13.689.021,11.249.021ZM12.09,6.85c-.4,2.616-2.4,2.616-4.331,2.616h-1.1L7.431,4.58a.608.608,0,0,1,.6-.513h.5c1.317,0,2.559,0,3.2.751A2.43,2.43,0,0,1,12.09,6.85Zm20.954-.084H29.552a.608.608,0,0,0-.6.513l-.155.977L28.553,7.9c-.756-1.1-2.441-1.464-4.124-1.464a8.029,8.029,0,0,0-7.8,7.022,6.59,6.59,0,0,0,1.3,5.364,5.463,5.463,0,0,0,4.4,1.776,6.681,6.681,0,0,0,4.833-2l-.156.97a.608.608,0,0,0,.6.7h3.145a1.013,1.013,0,0,0,1-.856l1.887-11.95a.606.606,0,0,0-.6-.7Zm-4.867,6.8a3.891,3.891,0,0,1-3.939,3.334,2.945,2.945,0,0,1-2.344-.941,2.968,2.968,0,0,1-.548-2.453,3.908,3.908,0,0,1,3.913-3.36,2.945,2.945,0,0,1,2.328.951A3.022,3.022,0,0,1,28.177,13.561Zm23.462-6.8H48.13a1.017,1.017,0,0,0-.839.445l-4.839,7.128L40.4,7.488a1.016,1.016,0,0,0-.972-.723H35.981a.608.608,0,0,0-.577.8l3.865,11.341L35.635,24.04a.608.608,0,0,0,.5.96h3.5a1.012,1.012,0,0,0,.833-.435L52.138,7.719a.608.608,0,0,0-.5-.954Z" transform="translate(0 -0.02)" fill="#253b80"/>
    <path id="Path_5477" data-name="Path 5477" d="M997.661,0h-7.292a1.013,1.013,0,0,0-1,.855l-2.949,18.7a.606.606,0,0,0,.6.7h3.742a.709.709,0,0,0,.7-.6l.837-5.3a1.013,1.013,0,0,1,1-.856H995.6c4.8,0,7.575-2.324,8.3-6.93a5.612,5.612,0,0,0-.931-4.707C1001.939.645,1000.1,0,997.661,0ZM998.5,6.83c-.4,2.616-2.4,2.616-4.331,2.616h-1.1l.773-4.886a.606.606,0,0,1,.6-.513h.5c1.316,0,2.559,0,3.2.751A2.43,2.43,0,0,1,998.5,6.83m20.953-.084h-3.489a.6.6,0,0,0-.6.513l-.155.977-.245-.354c-.756-1.1-2.44-1.464-4.123-1.464a8.028,8.028,0,0,0-7.794,7.021,6.594,6.594,0,0,0,1.3,5.364,5.466,5.466,0,0,0,4.4,1.776,6.681,6.681,0,0,0,4.833-2l-.156.97a.608.608,0,0,0,.6.7h3.144a1.013,1.013,0,0,0,1-.856l1.888-11.95a.609.609,0,0,0-.509-.694.6.6,0,0,0-.093-.007Zm-4.867,6.8a3.89,3.89,0,0,1-3.939,3.334,2.948,2.948,0,0,1-2.344-.941,2.976,2.976,0,0,1-.548-2.453,3.91,3.91,0,0,1,3.913-3.36,2.945,2.945,0,0,1,2.328.951,3.007,3.007,0,0,1,.591,2.47M1023.572.514l-2.993,19.039a.607.607,0,0,0,.6.7h3.009a1.011,1.011,0,0,0,1-.856L1028.139.7a.608.608,0,0,0-.6-.7h-3.369a.609.609,0,0,0-.6.514" transform="translate(-934.406)" fill="#179bd7"/>
  </g>
</svg>
