<svg xmlns="http://www.w3.org/2000/svg" width="24.692" height="43.917" viewBox="0 0 24.692 43.917">
  <g id="Group_3576" data-name="Group 3576" transform="translate(0 4)">
    <path id="Path_33" data-name="Path 33" d="M137.61,123.826a12.341,12.341,0,0,0-1.372,24.606v17.661l.943,1.457a.481.481,0,0,0,.771,0l1.029-1.457V148.432a12.341,12.341,0,0,0-1.372-24.606m0,21.948a9.6,9.6,0,1,1,0-19.2,9.6,9.6,0,1,1,0,19.2m0-16.461a6.824,6.824,0,0,0-6.859,6.859,1.355,1.355,0,0,0,1.372,1.372,1.411,1.411,0,0,0,1.372-1.372,4.116,4.116,0,0,1,4.115-4.116,1.41,1.41,0,0,0,1.372-1.371,1.475,1.475,0,0,0-1.372-1.372" transform="translate(-125.264 -127.826)" fill="#fff"/>
  </g>
</svg>
