<svg xmlns="http://www.w3.org/2000/svg" width="43.896" height="32.922" viewBox="0 0 43.896 32.922">
  <path id="Path_31" data-name="Path 31" d="M156.389,3.641H120.723a4.116,4.116,0,0,0-4.115,4.116V32.448a4.062,4.062,0,0,0,4.115,4.115h35.665a4.116,4.116,0,0,0,4.115-4.115V7.757a4.173,4.173,0,0,0-4.115-4.116M120.723,6.385h35.665a1.475,1.475,0,0,1,1.372,1.372v3.6c-1.886,1.543-4.63,3.772-12.946,10.374-1.458,1.2-4.287,3.943-6.259,3.858-2.057.086-4.887-2.657-6.344-3.858-8.317-6.6-11.06-8.831-12.86-10.374v-3.6a1.41,1.41,0,0,1,1.371-1.372m35.665,27.435H120.723a1.354,1.354,0,0,1-1.371-1.372V14.872c1.886,1.629,4.973,4.115,11.145,9,1.8,1.458,4.887,4.544,8.059,4.458,3.086.086,6.173-3,7.973-4.458,6.173-4.887,9.259-7.373,11.231-9V32.448a1.41,1.41,0,0,1-1.372,1.372" transform="translate(-116.608 -3.641)" fill="#fff"/>
</svg>
