<svg xmlns="http://www.w3.org/2000/svg" width="38.802" height="35.667" viewBox="0 0 38.802 35.667">
  <g id="Group_3577" data-name="Group 3577" transform="translate(0 0)">
    <path id="Path_34" data-name="Path 34" d="M202.55,3.052a3.979,3.979,0,0,1,.936-1.626,3.307,3.307,0,0,1,2.328-.92C206.9.5,208,.5,209.087.5q12.482,0,24.964,0a3.3,3.3,0,0,1,2.818,1.308,2.855,2.855,0,0,1,.607,1.534c.015.212.071.341.32.361a2.937,2.937,0,0,1,2.695,2.013,3,3,0,0,1-.785,3.311c-.569.589-1.141,1.175-1.74,1.732a1.281,1.281,0,0,0-.438,1.038c.016,4.08.01,8.16.009,12.24a3.479,3.479,0,0,1-.829,2.44,3.177,3.177,0,0,1-2.471,1.088q-5.433-.008-10.864,0-5.637,0-11.273-.007a1,1,0,0,0-.781.328q-3.475,3.5-6.967,6.975c-.088.088-.174.176-.264.262-.586.561-1.072.516-1.538-.142Zm33.272,9.93c-.16.039-.238.176-.339.276-1.695,1.69-3.392,3.378-5.076,5.08a1.975,1.975,0,0,1-1.09.581c-1.1.206-2.188.43-3.281.652-.972.2-1.427-.258-1.23-1.232s.386-1.919.576-2.879c.111-.563.109-.565-.453-.565q-6.585,0-13.171,0a2.5,2.5,0,0,1-.7-.066.815.815,0,0,1,.11-1.593,3.825,3.825,0,0,1,.483-.013q7.33,0,14.66.006a1.041,1.041,0,0,0,.817-.332q2.287-2.316,4.6-4.606c1.322-1.308,2.6-2.665,3.971-3.92a.487.487,0,0,0,.168-.354,1.617,1.617,0,0,0-1.716-1.836q-14.14,0-28.278,0A1.527,1.527,0,0,0,204.2,3.836q0,14.214,0,28.427c0,.1-.056.221.117.323.075-.089.147-.189.235-.276,1.927-1.931,3.868-3.85,5.778-5.8a1.943,1.943,0,0,1,1.508-.629q11.014.021,22.027.009c.2,0,.4,0,.595-.01a1.48,1.48,0,0,0,1.319-1.086,3.2,3.2,0,0,0,.091-.81q0-5.321,0-10.642c0-.118.039-.245-.042-.362M227,17.674c.635-.132,1.352-.277,2.064-.435a.559.559,0,0,0,.24-.164q3.408-3.4,6.815-6.805c.155-.155.138-.247-.007-.39-.533-.519-1.062-1.042-1.576-1.578-.178-.185-.284-.193-.471,0q-3.356,3.375-6.727,6.736a.616.616,0,0,0-.212.3c-.144.7-.291,1.406-.431,2.11-.034.169.037.265.3.233m10.606-12.3a1.172,1.172,0,0,0-.859.3c-.383.351-.748.721-1.126,1.078-.122.116-.093.2.014.308q.845.836,1.682,1.681c.1.1.185.157.307.028.366-.387.761-.748,1.1-1.157a1.3,1.3,0,0,0,.14-1.468,1.307,1.307,0,0,0-1.257-.766" transform="translate(-202.222 -0.172)" fill="#fff"/>
    <path id="Path_35" data-name="Path 35" d="M203.162,35.667c-.031,0-.063,0-.094,0A1.362,1.362,0,0,1,202.11,35l-.06-.085.02-32.143a4.291,4.291,0,0,1,1.018-1.754,3.633,3.633,0,0,1,2.55-1.01c.774-.007,1.549-.005,2.323,0l7.195,0q9.364,0,18.723,0h0a3.645,3.645,0,0,1,3.079,1.438,3.2,3.2,0,0,1,.672,1.709.33.33,0,0,0,.013.09,3.193,3.193,0,0,1,2.981,2.193,3.334,3.334,0,0,1-.856,3.653c-.554.573-1.145,1.179-1.752,1.745a.952.952,0,0,0-.334.8q.02,5.008.01,10.016v2.226a3.785,3.785,0,0,1-.914,2.659,3.511,3.511,0,0,1-2.71,1.2h-.005q-3.923-.006-7.845,0h-5.434q-4.428,0-8.858-.007h0a.684.684,0,0,0-.543.231q-2.724,2.741-5.46,5.469l-1.582,1.581c-.064.066-.128.13-.194.193a1.444,1.444,0,0,1-.98.48m-.457-.967a.691.691,0,0,0,.426.31c.153.021.338-.085.558-.3.062-.06.122-.121.182-.181l1.583-1.584q2.733-2.73,5.459-5.468a1.335,1.335,0,0,1,1.014-.423q4.428.012,8.856.007h5.433q3.924,0,7.846,0h0a2.845,2.845,0,0,0,2.224-.98,3.124,3.124,0,0,0,.745-2.22V21.639q0-5.006-.01-10.013a1.607,1.607,0,0,1,.542-1.279c.6-.555,1.158-1.13,1.728-1.72a2.684,2.684,0,0,0,.713-2.97,2.617,2.617,0,0,0-2.414-1.8.63.63,0,0,1-.62-.664,2.524,2.524,0,0,0-.541-1.361A2.984,2.984,0,0,0,233.88.655h0q-9.361,0-18.723,0l-7.2,0c-.772,0-1.544,0-2.316,0a3,3,0,0,0-2.105.831,3.638,3.638,0,0,0-.833,1.446Zm1.511-1.863-.24-.142a.554.554,0,0,1-.281-.58q0-14.251,0-28.452a1.851,1.851,0,0,1,2-1.984q14.138,0,28.278,0a2.033,2.033,0,0,1,1.526.6,2.061,2.061,0,0,1,.517,1.58.809.809,0,0,1-.274.577c-.922.841-1.816,1.747-2.68,2.623-.425.431-.851.862-1.281,1.288q-2.312,2.288-4.6,4.6a1.366,1.366,0,0,1-1.046.428h0q-6.189-.013-12.379-.006h-2.386a2.418,2.418,0,0,0-.337.011.488.488,0,0,0-.419.45.493.493,0,0,0,.359.5,2.17,2.17,0,0,0,.6.053h13.186c.347,0,.575,0,.732.19s.111.421.042.767q-.284,1.44-.576,2.88a.866.866,0,0,0,.087.758.863.863,0,0,0,.757.087l.484-.1c.934-.19,1.867-.379,2.8-.554a1.648,1.648,0,0,0,.917-.489q2.209-2.236,4.442-4.448l.69-.694a.836.836,0,0,1,.436-.3l.219-.054.13.185a.708.708,0,0,1,.1.487l0,4.973,0,5.73a3.541,3.541,0,0,1-.1.892,1.8,1.8,0,0,1-1.615,1.331c-.178.012-.358.01-.535.012h-3.858q-9.122,0-18.251-.01h0a1.618,1.618,0,0,0-1.27.531c-1.347,1.373-2.708,2.732-4.07,4.091l-1.711,1.709a2.132,2.132,0,0,0-.143.168Zm15.624-30.5H205.7a1.209,1.209,0,0,0-1.348,1.33q-.006,14.017,0,28.033l1.5-1.5c1.36-1.357,2.72-2.714,4.065-4.086a2.267,2.267,0,0,1,1.738-.728h0q9.124.019,18.25.01h3.859c.163,0,.328,0,.49-.01a1.156,1.156,0,0,0,1.025-.841,2.921,2.921,0,0,0,.081-.729l0-10.317-.457.456q-2.225,2.217-4.438,4.445a2.3,2.3,0,0,1-1.262.673c-.932.174-1.862.363-2.792.552l-.484.1a1.236,1.236,0,0,1-1.616-1.618q.292-1.439.576-2.877c.01-.056.024-.119.033-.174H211.587a2.951,2.951,0,0,1-.791-.079,1.142,1.142,0,0,1,.16-2.233,3.276,3.276,0,0,1,.425-.016h2.38q6.19,0,12.381.006h0a.713.713,0,0,0,.579-.234q2.29-2.317,4.6-4.61.643-.637,1.276-1.283c.87-.881,1.77-1.793,2.7-2.646a.158.158,0,0,0,.062-.13,1.427,1.427,0,0,0-.34-1.093,1.4,1.4,0,0,0-1.049-.4H219.841m6.893,15.5a.558.558,0,0,1-.419-.162.508.508,0,0,1-.111-.468c.105-.527.214-1.052.322-1.577l.11-.536a.833.833,0,0,1,.272-.436l1.589-1.589q2.586-2.585,5.165-5.174a.668.668,0,0,1,.468-.235h.005a.665.665,0,0,1,.467.243c.512.535,1.039,1.055,1.568,1.571a.623.623,0,0,1,.216.43.6.6,0,0,1-.206.427q-2.187,2.177-4.366,4.359l-2.448,2.446a.841.841,0,0,1-.4.252c-.554.123-1.11.238-1.629.345l-.466.095a1.022,1.022,0,0,1-.135.009m7.393-9.482v0q-2.578,2.592-5.167,5.175l-1.56,1.561a.776.776,0,0,0-.122.133l-.11.537c-.1.465-.192.93-.285,1.4l.32-.067c.516-.106,1.069-.221,1.62-.343,0,0,.02-.017.08-.076l2.448-2.446q2.16-2.16,4.323-4.316c-.543-.535-1.051-1.037-1.546-1.553h0m3.189.638a.579.579,0,0,1-.4-.2q-.836-.842-1.68-1.679a.568.568,0,0,1-.191-.4.521.521,0,0,1,.182-.377c.147-.139.291-.28.436-.421.229-.223.458-.446.694-.662a1.472,1.472,0,0,1,1.086-.381,1.624,1.624,0,0,1,1.546.951A1.617,1.617,0,0,1,238.8,7.64c-.231.279-.485.536-.732.784-.129.128-.257.257-.381.389a.509.509,0,0,1-.37.178ZM235.77,6.721c.526.523,1.035,1.033,1.542,1.542.1-.1.2-.2.3-.3.247-.248.48-.483.691-.738a.972.972,0,0,0,.1-1.117.983.983,0,0,0-.964-.58h-.009a.821.821,0,0,0-.628.21c-.23.21-.454.428-.678.647q-.174.17-.349.338" transform="translate(-202.05 0)" fill="#fff"/>
    <path id="Path_36" data-name="Path 36" d="M224.21,12.648h8.366a3.6,3.6,0,0,1,.446.012.81.81,0,0,1,.118,1.587,2.459,2.459,0,0,1-.588.068q-8.385,0-16.769,0a2.291,2.291,0,0,1-.551-.064.8.8,0,0,1-.6-.831.816.816,0,0,1,.734-.763,3.684,3.684,0,0,1,.408-.009h8.44" transform="translate(-206.386 -4.361)" fill="#fff"/>
    <path id="Path_37" data-name="Path 37" d="M223.994,14.474l-8.385,0a2.633,2.633,0,0,1-.63-.073,1.13,1.13,0,0,1-.852-1.17,1.145,1.145,0,0,1,1.025-1.069,3.436,3.436,0,0,1,.359-.012h16.976a3.153,3.153,0,0,1,.4.016,1.164,1.164,0,0,1,1,1.094,1.15,1.15,0,0,1-.847,1.135,2.716,2.716,0,0,1-.666.079l-8.385,0M215.416,12.8a1.716,1.716,0,0,0-.193.009.486.486,0,0,0-.442.457.476.476,0,0,0,.356.494,2,2,0,0,0,.472.054q8.383,0,16.769,0a2.067,2.067,0,0,0,.507-.059.5.5,0,0,0,.352-.47.5.5,0,0,0-.432-.474,2.374,2.374,0,0,0-.314-.01H215.416" transform="translate(-206.214 -4.189)" fill="#fff"/>
    <path id="Path_38" data-name="Path 38" d="M220.207,27.19c1.574,0,3.148,0,4.722,0a.815.815,0,0,1,.54,1.464,1.24,1.24,0,0,1-.812.2h-4.314q-2.231,0-4.462,0a3.028,3.028,0,0,1-.482-.029.831.831,0,0,1-.772-.881.821.821,0,0,1,.894-.758c1.128-.007,2.256,0,3.384,0h1.3Z" transform="translate(-206.387 -9.375)" fill="#fff"/>
    <path id="Path_39" data-name="Path 39" d="M219.278,29.015h-3.57a3.21,3.21,0,0,1-.535-.033,1.16,1.16,0,0,1-1.043-1.23,1.145,1.145,0,0,1,1.217-1.059c.8-.005,1.6,0,2.4,0l2.288,0h1.276q1.724,0,3.448,0a1.142,1.142,0,0,1,.742,2.048,1.545,1.545,0,0,1-1.015.275Zm-2.391-1.673q-.768,0-1.536,0c-.339,0-.546.168-.569.455s.17.478.5.533a2.6,2.6,0,0,0,.428.024h8.775a.934.934,0,0,0,.609-.133.469.469,0,0,0,.172-.552.479.479,0,0,0-.51-.327c-1.148,0-2.3,0-3.445,0h-1.278l-2.287,0h-.859" transform="translate(-206.214 -9.203)" fill="#fff"/>
  </g>
</svg>
