<svg xmlns="http://www.w3.org/2000/svg" width="43.95" height="43.868" viewBox="0 0 43.95 43.868">
  <g id="Group_3575" data-name="Group 3575" transform="translate(0 0)">
    <path id="Path_32" data-name="Path 32" d="M41.806,84.83l-8.573-2.058a2.717,2.717,0,0,0-3.086,1.544L26.117,93.66a2.619,2.619,0,0,0,.772,3.086l4.629,3.772A29.558,29.558,0,0,1,17.8,114.237l-3.772-4.63a2.62,2.62,0,0,0-3.086-.771L1.6,112.865a2.762,2.762,0,0,0-1.543,3l2.057,8.659a2.585,2.585,0,0,0,2.572,2.057A39.242,39.242,0,0,0,43.95,87.4a2.578,2.578,0,0,0-2.144-2.572M4.77,123.839,2.8,115.351l9.174-3.944,5.144,6.259c8.83-4.2,13.631-9,17.833-17.833L28.69,94.689l3.943-9.174,8.488,1.972A36.369,36.369,0,0,1,4.77,123.839" transform="translate(0 -82.714)" fill="#fff"/>
  </g>
</svg>
