<svg xmlns="http://www.w3.org/2000/svg" xmlns:xlink="http://www.w3.org/1999/xlink" width="45" height="45" viewBox="0 0 45 45">
  <defs>
    <linearGradient id="linear-gradient" x1="0.5" x2="0.289" y2="0.938" gradientUnits="objectBoundingBox">
      <stop offset="0" stop-color="#b035ae"/>
      <stop offset="0.008" stop-color="#7e46c8"/>
      <stop offset="1" stop-color="#f75355"/>
    </linearGradient>
  </defs>
  <g id="Group_4041" data-name="Group 4041" transform="translate(-1238 -3467)">
    <circle id="Ellipse_12" data-name="Ellipse 12" cx="22.5" cy="22.5" r="22.5" transform="translate(1238 3467)" fill="url(#linear-gradient)"/>
    <path id="Icon_awesome-instagram" data-name="Icon awesome-instagram" d="M8.508,6.384a4.363,4.363,0,1,0,4.363,4.363A4.356,4.356,0,0,0,8.508,6.384Zm0,7.2a2.837,2.837,0,1,1,2.837-2.837A2.842,2.842,0,0,1,8.508,13.583Zm5.559-7.378a1.018,1.018,0,1,1-1.018-1.018A1.015,1.015,0,0,1,14.067,6.205Zm2.89,1.033a5.036,5.036,0,0,0-1.375-3.566A5.069,5.069,0,0,0,12.016,2.3c-1.405-.08-5.616-.08-7.021,0A5.062,5.062,0,0,0,1.429,3.668,5.053,5.053,0,0,0,.055,7.234c-.08,1.405-.08,5.616,0,7.021a5.036,5.036,0,0,0,1.375,3.566A5.076,5.076,0,0,0,4.995,19.2c1.405.08,5.616.08,7.021,0a5.036,5.036,0,0,0,3.566-1.375,5.069,5.069,0,0,0,1.375-3.566c.08-1.405.08-5.613,0-7.018Zm-1.815,8.525a2.872,2.872,0,0,1-1.618,1.618c-1.12.444-3.778.342-5.016.342s-3.9.1-5.016-.342a2.872,2.872,0,0,1-1.618-1.618c-.444-1.12-.342-3.778-.342-5.016s-.1-3.9.342-5.016A2.872,2.872,0,0,1,3.491,4.113c1.12-.444,3.778-.342,5.016-.342s3.9-.1,5.016.342A2.872,2.872,0,0,1,15.142,5.73c.444,1.12.342,3.778.342,5.016S15.586,14.647,15.142,15.763Z" transform="translate(1252.006 3478.762)" fill="#fff"/>
  </g>
</svg>
