<svg xmlns="http://www.w3.org/2000/svg" width="45" height="45" viewBox="0 0 45 45">
  <g id="Group_4042" data-name="Group 4042" transform="translate(-1178 -3467)">
    <circle id="Ellipse_11" data-name="Ellipse 11" cx="22.5" cy="22.5" r="22.5" transform="translate(1178 3467)" fill="#1ea1f1"/>
    <path id="Icon_awesome-twitter" data-name="Icon awesome-twitter" d="M17.444,7.316c.012.173.012.345.012.518A11.26,11.26,0,0,1,6.119,19.172,11.261,11.261,0,0,1,0,17.383a8.243,8.243,0,0,0,.962.049,7.98,7.98,0,0,0,4.947-1.7,3.992,3.992,0,0,1-3.726-2.763,5.025,5.025,0,0,0,.753.062,4.214,4.214,0,0,0,1.049-.136A3.985,3.985,0,0,1,.79,8.982V8.932a4.013,4.013,0,0,0,1.8.506A3.991,3.991,0,0,1,1.357,4.109a11.327,11.327,0,0,0,8.216,4.17,4.5,4.5,0,0,1-.1-.913,3.989,3.989,0,0,1,6.9-2.726A7.845,7.845,0,0,0,18.9,3.677a3.974,3.974,0,0,1-1.752,2.2,7.988,7.988,0,0,0,2.295-.617,8.566,8.566,0,0,1-2,2.06Z" transform="translate(1191 3478.619)" fill="#fff"/>
  </g>
</svg>
