<svg xmlns="http://www.w3.org/2000/svg" width="45" height="45" viewBox="0 0 45 45">
  <g id="Group_4043" data-name="Group 4043" transform="translate(-1118 -3467)">
    <circle id="Ellipse_10" data-name="Ellipse 10" cx="22.5" cy="22.5" r="22.5" transform="translate(1118 3467)" fill="red"/>
    <path id="Icon_metro-youtube" data-name="Icon metro-youtube" d="M7.341,1.928,6.215,4.161,5.089,1.928H3.654L5.683,5.464l.012-.007V8.176H6.736V5.457l.012.007L8.777,1.928ZM10.38,4.011a.528.528,0,0,1,.521.521V6.614a.521.521,0,1,1-1.041,0V4.531a.528.528,0,0,1,.521-.521Zm0-1.041A1.567,1.567,0,0,0,8.818,4.531V6.614a1.562,1.562,0,1,0,3.124,0V4.531A1.567,1.567,0,0,0,10.38,2.969Zm4.686,0v4.1c-.454.379-1.041.607-1.041-.742V2.969H12.984V6.538h0c.016.861.2,2.411,2.081,1.15v.488h1.041V2.969H15.066Zm1.562,10.413a.521.521,0,0,0-.521.521v.521h1.041V13.9A.521.521,0,0,0,16.628,13.382Zm-4.686.521v2.733c.353.353,1.041.39,1.041-.13V14.065C12.984,13.545,12.463,13.382,11.942,13.9Zm7.2-2.513A2.165,2.165,0,0,0,17.017,9.3c-1.135-.057-3.733-.085-6.015-.085s-5.065.028-6.2.085A2.165,2.165,0,0,0,2.673,11.39c-.068,1.222-.1,1.665-.1,2.276s.034,1.528.1,2.75A2.165,2.165,0,0,0,4.8,18.5c1.135.057,3.918.085,6.2.085s4.88-.028,6.015-.085a2.165,2.165,0,0,0,2.129-2.088q.085-1.528.085-2.75c0-.815-.028-1.258-.085-2.276ZM5.695,17.547H4.653V12.341H3.612V11.3H6.736v1.041H5.695Zm4.165,0H8.818V17.06c-1.98,1.111-2.065.036-2.081-.825h0V13.382H7.777v2.869c0,.629.587.568,1.041.189V13.382H9.86Zm4.165-1.056c0,1.088-1.115,1.406-2.083.56v.5H10.9V11.3h1.041v1.692c1.041-1.041,2.083-.651,2.083.39Zm4.165-2.068v.521H16.107v1.041a.521.521,0,0,0,1.041,0v-.521H18.19v.521a1.562,1.562,0,1,1-3.124,0V13.9a1.562,1.562,0,0,1,3.124,0v.521Z" transform="translate(1129.43 3479.072)" fill="#fff"/>
  </g>
</svg>
