<svg xmlns="http://www.w3.org/2000/svg" width="20.855" height="14.078" viewBox="0 0 20.855 14.078">
  <path id="Icon_zocial-email" data-name="Icon zocial-email" d="M.072,16.9V5.315q0-.02.06-.382L6.95,10.765.152,17.3a1.7,1.7,0,0,1-.08-.4Zm.9-12.77a.867.867,0,0,1,.342-.06H19.68a1.139,1.139,0,0,1,.362.06L13.2,9.981l-.9.724-1.79,1.468L8.72,10.7l-.9-.724ZM1,18.085l6.858-6.576,2.655,2.152,2.655-2.152,6.858,6.576a.966.966,0,0,1-.342.06H1.319A.911.911,0,0,1,1,18.085Zm13.072-7.32,6.8-5.832a1.2,1.2,0,0,1,.06.382V16.9a1.541,1.541,0,0,1-.06.4Z" transform="translate(-0.072 -4.068)" fill="#5f8b2f"/>
</svg>
