<svg id="Icon_feather-link" data-name="Icon feather-link" xmlns="http://www.w3.org/2000/svg" width="16.884" height="16.867" viewBox="0 0 16.884 16.867">
  <path id="Path_5510" data-name="Path 5510" d="M17.938,13.629q-.167,0-.336-.012a4.682,4.682,0,0,1-3.417-1.867.931.931,0,0,1,1.491-1.115,2.823,2.823,0,0,0,4.257.3l2.252-2.252A2.823,2.823,0,1,0,18.194,4.7L16.9,5.982a.931.931,0,0,1-1.313-1.32l1.291-1.284A4.684,4.684,0,0,1,23.5,10L21.25,12.257A4.681,4.681,0,0,1,17.938,13.629Z" transform="translate(-7.99 -2.008)" fill="#5f8b2f"/>
  <path id="Path_5511" data-name="Path 5511" d="M6.677,24.112a4.682,4.682,0,0,1-3.312-7.995l2.252-2.252a4.685,4.685,0,0,1,7.064.506.931.931,0,0,1-1.491,1.115,2.823,2.823,0,0,0-4.257-.3L4.681,17.433a2.823,2.823,0,1,0,3.992,3.992l1.283-1.284a.931.931,0,0,1,1.317,1.316L9.99,22.742A4.671,4.671,0,0,1,6.677,24.112Z" transform="translate(-1.993 -7.244)" fill="#5f8b2f"/>
</svg>
