<svg xmlns="http://www.w3.org/2000/svg" xmlns:xlink="http://www.w3.org/1999/xlink" width="213.6" height="65.4" viewBox="0 0 213.6 65.4">
  <defs>
    <clipPath id="clip-path">
      <rect id="Rectangle_19" data-name="Rectangle 19" width="213.6" height="65.4" transform="translate(0 0)" fill="none"/>
    </clipPath>
  </defs>
  <g id="Group_31" data-name="Group 31" transform="translate(0 0)" clip-path="url(#clip-path)">
    <path id="Path_17" data-name="Path 17" d="M32.7,0A32.7,32.7,0,1,0,65.4,32.7,32.649,32.649,0,0,0,32.7,0m0,5.4A27.3,27.3,0,1,1,5.3,32.7,27.421,27.421,0,0,1,32.7,5.4" fill="#8d1d82"/>
    <path id="Path_18" data-name="Path 18" d="M13.3,21.7H31.9v5.6H19.8v4h11v5.3h-11v8.3H13.4V21.7ZM43.9,32.9c2.2,0,3.5-1.1,3.5-2.7v-.1c0-1.9-1.4-2.8-3.5-2.8H39.7v5.6ZM33.2,21.7h11c3.6,0,6,.9,7.6,2.5a7.155,7.155,0,0,1,2.1,5.4v.1a7.454,7.454,0,0,1-4.8,7.2L54.7,45H47.3l-4.7-7.1H39.8v7H33.4Z" fill="#8d1d82"/>
    <path id="Path_19" data-name="Path 19" d="M78.2,15.8H88.3v1h-9v5.9h8.1v1H79.3v6.4H78.2Zm12.1,8.3V15.7h1.1V24c0,3.4,1.8,5.3,4.8,5.3,2.9,0,4.8-1.7,4.8-5.2V15.7h1.1V24c0,4.1-2.4,6.3-5.9,6.3-3.4,0-5.9-2.2-5.9-6.2m14.8-8.3h1L116,28.2V15.8h1V30.1h-.8L106.1,17.3V30h-1ZM125,29.1c4,0,6.5-2.7,6.5-6.1a6.123,6.123,0,0,0-6.5-6.2h-3.7V29.1Zm-4.8-13.3H125c4.5,0,7.6,3.1,7.6,7.1s-3.1,7.2-7.6,7.2h-4.8Zm20.9,7.4c2.4,0,4.2-1.2,4.2-3.3,0-1.9-1.5-3.1-4.1-3.1h-4.9v6.4Zm-5.9-7.4h6a5.39,5.39,0,0,1,4,1.4,3.693,3.693,0,0,1,1.1,2.7c0,2.4-1.8,3.8-4.2,4.1l4.7,6.1h-1.4l-4.6-5.9h-4.7v5.9H135V15.8Zm23.4,9.3-3.8-8.3L151,25.1Zm-4.2-9.4h1l6.7,14.4h-1.2l-1.8-4h-8.4l-1.8,4h-1.1Zm9.8,14.4h1.1V15.8h-1.1Zm3.5-2.1.7-.8a6.723,6.723,0,0,0,5.1,2.1c2.1,0,3.6-1.2,3.6-2.8,0-1.5-.8-2.4-4.1-3-3.4-.7-4.8-1.9-4.8-4s2-3.8,4.6-3.8a7.293,7.293,0,0,1,4.9,1.7l-.7.9a6.091,6.091,0,0,0-4.3-1.6c-2.1,0-3.5,1.2-3.5,2.7s.8,2.4,4.2,3.1c3.3.7,4.7,1.9,4.7,4,0,2.3-2,3.9-4.7,3.9a9.088,9.088,0,0,1-5.7-2.4m13.2,2.1H182V15.8h-1.1Zm4.4-14.3h1l9.9,12.4V15.8h1V30.1h-.8L186.3,17.3V30h-1Zm14.5,7.1h0a7.129,7.129,0,0,1,7.1-7.4,7.361,7.361,0,0,1,5.2,1.9l-.7.8a6.262,6.262,0,0,0-4.6-1.7c-3.5,0-5.9,3-5.9,6.4,0,3.7,2.3,6.4,6.1,6.4a7.5,7.5,0,0,0,4.6-1.6V23.6h-4.8v-1h5.8v5.5a8.854,8.854,0,0,1-5.6,2.1c-4.5.1-7.2-3.2-7.2-7.3" fill="#8d1d82"/>
    <path id="Path_20" data-name="Path 20" d="M85.1,41.4c1.7,0,2.7-.9,2.7-2.3,0-1.5-1.1-2.3-2.8-2.3H81.5v4.6Zm-7.2-7.7h7.3a6.836,6.836,0,0,1,4.7,1.6A4.975,4.975,0,0,1,91.3,39a5.064,5.064,0,0,1-3.4,5l3.9,5.7H87.7l-3.5-5.1H81.4v5.1H77.9Zm15.5,0h12.1v3.1H96.9V40h7.6v3.1H96.9v3.3h8.7v3.1H93.4Zm13.5,8h0a8.24,8.24,0,0,1,8.4-8.3,8.92,8.92,0,0,1,6.3,2.2l-2.2,2.7a6.074,6.074,0,0,0-4.2-1.6,4.812,4.812,0,0,0-4.6,5,4.814,4.814,0,0,0,4.8,5.1,5.183,5.183,0,0,0,3.3-1V43.5h-3.6v-3h7v6.9a10.2,10.2,0,0,1-6.8,2.5c-5,0-8.4-3.4-8.4-8.2m17.2,1.1V33.6h3.5v9.1c0,2.6,1.3,4,3.5,4s3.5-1.3,3.5-3.8V33.7h3.5v9c0,4.8-2.7,7.2-7.1,7.2-4.3,0-6.9-2.4-6.9-7.1m16.4-9.1H144V46.5h8v3.2H140.5ZM162.8,43l-2.1-5.2L158.6,43Zm-3.7-9.4h3.2l6.9,16.1h-3.7L164,46.1h-6.8l-1.5,3.6h-3.6c.1,0,7-16.1,7-16.1m13.1,3.3h-4.9V33.7h13.3v3.2h-4.9V49.7h-3.5Zm21.9,4.8h0a4.873,4.873,0,0,0-4.8-5.1,4.787,4.787,0,0,0-4.8,5,4.846,4.846,0,0,0,4.8,5,4.7,4.7,0,0,0,4.8-4.9m-13.3,0h0a8.5,8.5,0,1,1,8.5,8.2,8.124,8.124,0,0,1-8.5-8.2m26.1-.3c1.7,0,2.7-.9,2.7-2.3,0-1.5-1.1-2.3-2.8-2.3h-3.5v4.6Zm-7.1-7.7h7.3a6.836,6.836,0,0,1,4.7,1.6,4.975,4.975,0,0,1,1.4,3.7,5.023,5.023,0,0,1-3.5,5l3.9,5.7h-4.1L206,44.6h-2.8v5.1h-3.5Z" fill="#575756"/>
  </g>
</svg>
