<svg xmlns="http://www.w3.org/2000/svg" xmlns:xlink="http://www.w3.org/1999/xlink" width="214.503" height="70.644" viewBox="0 0 214.503 70.644">
  <defs>
    <clipPath id="clip-path">
      <rect id="Rectangle_1" data-name="Rectangle 1" width="214.503" height="70.644" fill="none"/>
    </clipPath>
  </defs>
  <g id="Group_1" data-name="Group 1" clip-path="url(#clip-path)">
    <path id="Path_1" data-name="Path 1" d="M29.431,30.224c-1.12-.935-2.2-1.837-3.283-2.739a3.316,3.316,0,0,1-1.228-2.866c.085-2.913.028-5.829.028-8.745V14.289c1.916.677,2.293-.695,2.873-1.828,1.03-2.027,2.1-4.035,3.11-6.07a1.335,1.335,0,0,1,1.621-.826c4.462.606,8.926,1.219,13.407,1.658A11.662,11.662,0,0,0,50.367,6.8c7-2.115,13.974-4.335,20.932-6.6,1.231-.4,1.968-.264,2.5.944A14.414,14.414,0,0,0,74.85,2.865c-.314.279-.593.564-.91.8-1.279.948-2.569,1.885-3.86,2.819-3.32,2.4-3.263,2.406-3.656,6.5-.489,5.117-1.066,10.226-1.673,15.331a2.144,2.144,0,0,1-.929,1.345q-15.98,9.849-32.019,19.6a2.246,2.246,0,0,1-1.749.11q-3.928-1.565-7.761-3.356a2.082,2.082,0,0,1-.892-1.425,19.671,19.671,0,0,1-.152-3.675,3.066,3.066,0,0,1,.639-1.7c2.02-2.463,4.112-4.87,6.177-7.3.346-.408.674-.833,1.366-1.69" transform="translate(5.678 0)" fill="#e51835"/>
    <path id="Path_2" data-name="Path 2" d="M71.263,31.377a6.015,6.015,0,0,1,.626-1.24c3.942-4.727,7.751-9.529,10.347-15.186A33.512,33.512,0,0,1,85.244,10.1,4.769,4.769,0,0,1,86.9,8.716c1.621-.867,3.247,0,3.084,1.806a27.8,27.8,0,0,1-1.257,6.092c-3.043,9.278-8.439,17.2-14.607,24.627-2.819,3.393-5.8,6.67-8.914,9.793A54.435,54.435,0,0,0,54.524,65.278a4.852,4.852,0,0,1-4.483,2.809c-3.136.155-6.274.246-9.415.313a8.011,8.011,0,0,1-2.013-.3,1.8,1.8,0,0,1-1.475-1.863,57.849,57.849,0,0,1,1.695-16.906c1-3.735,3.8-6.09,6.976-7.857,3.611-2.006,7.378-3.747,11.149-5.449A13.273,13.273,0,0,0,63.507,30.1c1.2-2.249,2.24-4.574,3.426-6.826a26.242,26.242,0,0,1,2.359-3.813,2.4,2.4,0,0,1,2.876-.99,2.145,2.145,0,0,1,1.406,2.644c-.536,2.469-1.269,4.9-1.977,7.326a23.524,23.524,0,0,1-.962,2.361c.208.193.418.384.629.577" transform="translate(9.924 2.242)" fill="#579832"/>
    <path id="Path_3" data-name="Path 3" d="M16.738,40.942c-.782-1.314-1.621-2.6-2.33-3.955-.461-.886-1.236-1.99-.085-2.806s2.034.191,2.854.882A5.974,5.974,0,0,1,18.239,36.3a12.817,12.817,0,0,0,10.648,6.131,26.71,26.71,0,0,1,6.235,1.346,7.284,7.284,0,0,1,4.986,4.687A29.567,29.567,0,0,1,41.93,60.515c-.057.96-.463,1.534-1.342,1.539-1.859.011-3.718-.094-5.572-.209-.256-.016-.527-.324-.726-.555a4.654,4.654,0,0,1-.692-1.013,14.64,14.64,0,0,0-8.56-7.368A31.945,31.945,0,0,1,14.2,45.937c-3.473-3.282-6.909-6.6-10.277-9.985a7.151,7.151,0,0,1-1.463-2.7,1.655,1.655,0,0,1,.463-1.513,1.755,1.755,0,0,1,1.536.275c2.595,1.927,5.131,3.932,7.693,5.9,1.432,1.1,2.879,2.193,4.32,3.289l.262-.262" transform="translate(0.648 8.466)" fill="#579832"/>
    <path id="Path_4" data-name="Path 4" d="M103.664,16.631c-2.16.127-4.194.305-6.227.318-.4,0-.943-.562-1.186-.995-1.075-1.9-2.9-2.734-4.818-1.861a2.735,2.735,0,0,0-1.456,1.849c-.038.52.847,1.4,1.492,1.62,2.15.717,4.391,1.145,6.562,1.8,2.782.84,5.256,2.131,6.23,5.173,1.493,4.663-1.662,9.5-6.889,10.454a21.352,21.352,0,0,1-9.068-.213,8.49,8.49,0,0,1-6.258-6.7c-.142-.866.014-1.369,1.082-1.375,1.633-.008,3.27-.136,4.9-.274a1.128,1.128,0,0,1,1.368.929c.849,2.543,2.46,3.506,5.112,3.18a3.019,3.019,0,0,0,2.715-2.328A2.489,2.489,0,0,0,95.376,25.5c-1.531-.553-3.15-.867-4.686-1.407a24.283,24.283,0,0,1-4.631-1.93c-4.308-2.624-4.292-8.3-.06-11.081,2.366-1.554,5.057-1.715,7.747-1.652a19.855,19.855,0,0,1,4.836.673,6.8,6.8,0,0,1,5.017,5.414,7.154,7.154,0,0,1,.066,1.11" transform="translate(21.937 2.521)" fill="#579832"/>
    <path id="Path_5" data-name="Path 5" d="M102.28,36.1c1.11.094,2.086.251,3.065.247,2.625-.01,3.927-1.986,2.931-4.368q-3.187-7.607-6.367-15.217c-.171-.4-.308-.819-.537-1.441,2.3,0,4.425-.042,6.543.048.3.013.7.624.83,1.029,1,3.064,1.936,6.146,2.9,9.221.139.445.322.877.484,1.314l.359-.018q1.019-3.483,2.042-6.968c.369-1.264.688-2.544,1.117-3.786.12-.34.55-.8.854-.811,1.9-.074,3.8-.037,5.871-.037-.131.52-.183.863-.3,1.183-2.346,6.3-4.742,12.581-7.037,18.9-1.625,4.476-4.024,5.857-9.257,5.339-.364-.035-.722-.108-1.086-.137-2-.156-1.99-.153-2.161-2.118-.058-.72-.148-1.437-.25-2.383" transform="translate(27.118 4.094)" fill="#579832"/>
    <path id="Path_6" data-name="Path 6" d="M161.093,33.388a48.007,48.007,0,0,1-5.34-.074c-.576-.063-1.051-.987-1.7-1.658a1.808,1.808,0,0,0-.521.27c-2.691,2.133-5.761,2.322-8.928,1.62a4.567,4.567,0,0,1-3.78-4.553c-.1-2.683.878-4.287,3.43-5.038,2.645-.782,5.372-1.3,8.042-2.005.711-.189,1.832-.176,1.681-1.374a1.978,1.978,0,0,0-2.225-1.761c-1.507-.018-2.9.167-3.771,1.663a1.238,1.238,0,0,1-.981.473c-1.583-.122-3.155-.351-4.734-.508-.894-.089-.883-.582-.659-1.245a5.574,5.574,0,0,1,4.335-3.74,23.074,23.074,0,0,1,10.405.02c2.854.634,4.282,2.82,4.348,6.559.038,2.23-.039,4.462.022,6.69.041,1.48.234,2.956.382,4.661m-7.353-8.613c-1.569.492-3.038.918-4.483,1.42a2.036,2.036,0,0,0-1.591,2.355c.236,1.233,1.307,1.577,2.408,1.553,2.624-.057,4.354-2.486,3.666-5.327" transform="translate(37.67 3.979)" fill="#579832"/>
    <path id="Path_7" data-name="Path 7" d="M132,20.634c-3.455-.624-4.748.188-5.024,3.581-.243,2.972-.049,5.98-.049,9.138-2.34,0-4.365.042-6.386-.058-.236-.011-.607-.811-.616-1.25-.035-2.591.039-5.183.039-7.775,0-2.5-.009-5-.085-7.5-.033-1.079.35-1.435,1.423-1.377,1.573.084,3.152.022,4.768.022.071.88.128,1.574.183,2.269.108.039.212.079.314.118.25-.33.5-.658.742-.987,1.815-2.427,3.748-2.127,5.927-1.309.26.1.478.938.352,1.312-.432,1.281-1.028,2.51-1.588,3.82" transform="translate(32.068 3.989)" fill="#579832"/>
    <path id="Path_8" data-name="Path 8" d="M139.177,24.4c0,2.591-.024,5.182.014,7.772.014.825-.279,1.141-1.1,1.132-1.588-.019-3.183-.009-4.771.049-1.036.038-.91-.672-.91-1.289q-.017-5.932-.009-11.863c0-1.227.042-2.456-.01-3.681-.038-.962.35-1.268,1.288-1.224,1.451.067,2.911.065,4.363,0,.919-.039,1.165.324,1.151,1.193-.044,2.635-.016,5.272-.016,7.908" transform="translate(35.416 4.09)" fill="#579832"/>
    <path id="Path_9" data-name="Path 9" d="M135.864,9.708c3.37,0,3.316,0,3.349,3.361.011,1.224-.454,1.455-1.536,1.354a40.4,40.4,0,0,0-4.071-.133c-.875.006-1.17-.337-1.208-1.2-.139-3.379-.166-3.378,3.467-3.378" transform="translate(35.407 2.597)" fill="#579832"/>
    <path id="Path_10" data-name="Path 10" d="M107.968,60.234c-2.761,0-5.523.043-8.278-.048-.385-.013-.858-.619-1.1-1.055-1.3-2.294-2.512-4.639-3.808-6.936-.947-1.674-1.54-2-3.393-2.046q0,3.736,0,7.471c0,2.941.222,2.622-2.649,2.63-1.458,0-2.917-.037-4.372.014-.913.032-1.309-.234-1.3-1.227q.049-11.545.011-23.088c0-.965.352-1.269,1.279-1.261,4.875.039,9.75-.047,14.618.071,5.752.141,9.011,5.568,6.468,10.6-.913,1.8-2.515,2.8-4.424,3.672,3.893,2.731,4.908,7.168,7.2,10.808l-.241.4M93.531,45.274a22.5,22.5,0,0,0,3.188-.542,2.249,2.249,0,0,0,1.631-2.4,2.291,2.291,0,0,0-2-2.251,10.492,10.492,0,0,0-2.7-.26c-2.712.177-2.7-.512-2.7,2.794.005,2.522,0,2.522,2.578,2.664" transform="translate(22.22 9.28)" fill="#579832"/>
    <path id="Path_11" data-name="Path 11" d="M123.47,54.168a8.138,8.138,0,0,1-5.169,4.323,18.052,18.052,0,0,1-8.245.267,8.494,8.494,0,0,1-6.9-7.793c-.558-6.611,3.3-10.866,9.921-10.835a19.451,19.451,0,0,1,4.445.493,8.773,8.773,0,0,1,6.532,9.75c-.124.927-.73.773-1.3.774-3.644.01-7.288,0-10.932.006-1.891,0-2.148.456-1.233,2.169a3.638,3.638,0,0,0,5.621.9,3.349,3.349,0,0,1,2.05-.649c1.673.076,3.339.364,5.211.592M110.2,47.639h6.8c-.172-2.5-1.422-3.7-3.63-3.606a3.312,3.312,0,0,0-3.166,3.606" transform="translate(27.581 10.736)" fill="#579832"/>
    <path id="Path_12" data-name="Path 12" d="M160.974,51.154c-4.074,0-8.075,0-12.078,0-1.813,0-2.006.317-1.236,1.971a3.632,3.632,0,0,0,5.657,1.16,3.635,3.635,0,0,1,2.176-.7c1.669.062,3.335.359,5.166.581a8.047,8.047,0,0,1-5,4.273,17.135,17.135,0,0,1-8.5.281c-5.1-1.146-7.5-5.576-6.793-10.571.714-5.056,4.313-8.021,9.439-8.02a22.409,22.409,0,0,1,4.6.392c4.948,1.044,7.354,5.379,6.572,10.633m-6.9-3.353c.153-2.094-.965-3.563-2.69-3.757a3.46,3.46,0,0,0-4.029,2.922c-.028.259.338.793.532.8,2.067.06,4.136.037,6.187.037" transform="translate(37.517 10.736)" fill="#579832"/>
    <path id="Path_13" data-name="Path 13" d="M170.859,46.767a5.821,5.821,0,0,1-.629.127c-2.673.142-2.673.142-2.673,2.885V60.037c-2.166,0-4.2.044-6.225-.056-.25-.011-.659-.785-.659-1.205-.006-3.184.087-6.368.12-9.552.019-1.957-.009-1.925-1.944-2.3a1.25,1.25,0,0,1-.716-.889c-.1-.712.054-1.458-.011-2.179-.109-1.252.12-2.039,1.668-1.832.252.034.676-.617.883-1.023.147-.3.038-.711.1-1.066.648-4.04,1.911-5.236,5.979-5.392a34.9,34.9,0,0,1,4.483.316c.744.067,1.157.383.9,1.261-.248.861-.369,1.759-.56,2.7a5.789,5.789,0,0,0-1.928-.057,3.417,3.417,0,0,0-1.9,1.224c-.743,1.4-.106,2.159,1.477,2.029,1.64-.133,1.659-.11,1.64,1.574-.01,1.038,0,2.076,0,3.175" transform="translate(42.294 9.238)" fill="#579832"/>
    <path id="Path_14" data-name="Path 14" d="M129.669,47.5c0,3.733-.03,7.464.019,11.2.014,1.153-.314,1.659-1.553,1.581a40.413,40.413,0,0,0-4.5-.005c-1.047.049-1.326-.387-1.323-1.361q.036-11.468,0-22.938c0-.932.305-1.314,1.265-1.283,1.592.052,3.188.066,4.776-.005,1.039-.047,1.342.36,1.332,1.346-.035,3.823-.014,7.647-.014,11.47" transform="translate(32.72 9.278)" fill="#579832"/>
    <path id="Path_15" data-name="Path 15" d="M138.814,49.566c0,2.64-.041,5.28.022,7.918.025,1.042-.35,1.347-1.347,1.3-1.5-.071-3-.044-4.5-.009-.779.02-1.179-.2-1.176-1.063q.029-8.193-.005-16.385c0-.87.393-1.093,1.161-1.08,1.548.023,3.1.048,4.643-.009,1.063-.041,1.307.468,1.293,1.411-.036,2.639-.014,5.278-.014,7.917Z" transform="translate(35.259 10.764)" fill="#579832"/>
    <path id="Path_16" data-name="Path 16" d="M138.4,39.2c-2,0-3.944.027-5.886-.034-.24-.008-.648-.478-.664-.753-.076-1.167-.033-2.344-.033-3.616H138.4Z" transform="translate(35.261 9.309)" fill="#579832"/>
  </g>
</svg>
